<svg width="33" height="33" viewBox="0 0 33 33" fill="none" xmlns="http://www.w3.org/2000/svg">
<path d="M12.4062 4.8L14.5813 8.5H14.5H10C8.61875 8.5 7.5 7.38125 7.5 6C7.5 4.61875 8.61875 3.5 10 3.5H10.1375C11.0687 3.5 11.9375 3.99375 12.4062 4.8ZM4.5 6C4.5 6.9 4.71875 7.75 5.1 8.5H2.5C1.39375 8.5 0.5 9.39375 0.5 10.5V14.5C0.5 15.6062 1.39375 16.5 2.5 16.5H30.5C31.6063 16.5 32.5 15.6062 32.5 14.5V10.5C32.5 9.39375 31.6063 8.5 30.5 8.5H27.9C28.2812 7.75 28.5 6.9 28.5 6C28.5 2.9625 26.0375 0.5 23 0.5H22.8625C20.8687 0.5 19.0188 1.55625 18.0063 3.275L16.5 5.84375L14.9937 3.28125C13.9812 1.55625 12.1312 0.5 10.1375 0.5H10C6.9625 0.5 4.5 2.9625 4.5 6ZM25.5 6C25.5 7.38125 24.3813 8.5 23 8.5H18.5H18.4188L20.5938 4.8C21.0688 3.99375 21.9312 3.5 22.8625 3.5H23C24.3813 3.5 25.5 4.61875 25.5 6ZM2.5 18.5V29.5C2.5 31.1562 3.84375 32.5 5.5 32.5H14.5V18.5H2.5ZM18.5 32.5H27.5C29.1562 32.5 30.5 31.1562 30.5 29.5V18.5H18.5V32.5Z" fill="#5D3486"/>
</svg>
