<svg width="33" height="37" viewBox="0 0 33 37" fill="none" xmlns="http://www.w3.org/2000/svg">
<path d="M10.4905 1.47858C10.8762 0.700009 11.669 0.214294 12.5333 0.214294H21.1333C21.9976 0.214294 22.7905 0.700009 23.1762 1.47858L23.6905 2.50001H30.5476C31.8119 2.50001 32.8333 3.52144 32.8333 4.78572C32.8333 6.05001 31.8119 7.07144 30.5476 7.07144H3.11904C1.85476 7.07144 0.833328 6.05001 0.833328 4.78572C0.833328 3.52144 1.85476 2.50001 3.11904 2.50001H9.97619L10.4905 1.47858ZM3.11904 9.35715H30.5476V32.2143C30.5476 34.7357 28.4976 36.7857 25.9762 36.7857H7.69047C5.16904 36.7857 3.11904 34.7357 3.11904 32.2143V9.35715ZM9.97619 13.9286C9.34761 13.9286 8.83333 14.4429 8.83333 15.0714V31.0714C8.83333 31.7 9.34761 32.2143 9.97619 32.2143C10.6048 32.2143 11.119 31.7 11.119 31.0714V15.0714C11.119 14.4429 10.6048 13.9286 9.97619 13.9286ZM16.8333 13.9286C16.2048 13.9286 15.6905 14.4429 15.6905 15.0714V31.0714C15.6905 31.7 16.2048 32.2143 16.8333 32.2143C17.4619 32.2143 17.9762 31.7 17.9762 31.0714V15.0714C17.9762 14.4429 17.4619 13.9286 16.8333 13.9286ZM23.6905 13.9286C23.0619 13.9286 22.5476 14.4429 22.5476 15.0714V31.0714C22.5476 31.7 23.0619 32.2143 23.6905 32.2143C24.319 32.2143 24.8333 31.7 24.8333 31.0714V15.0714C24.8333 14.4429 24.319 13.9286 23.6905 13.9286Z" fill="#5C5C5C"/>
</svg>
