<svg width="33" height="32" viewBox="0 0 33 32" fill="none" xmlns="http://www.w3.org/2000/svg">
<path d="M11.4188 3.31875C12.5125 1.5625 14.4375 0.5 16.5 0.5C18.5625 0.5 20.4875 1.5625 21.5813 3.31875L23.9938 7.175L25.6813 6.2C26.2063 5.89375 26.8625 5.9375 27.3438 6.30625C27.825 6.675 28.0375 7.3 27.8813 7.8875L26.4188 13.35C26.2063 14.15 25.3813 14.625 24.5813 14.4125L19.1188 12.95C18.5313 12.7937 18.1 12.3 18.0188 11.7C17.9375 11.1 18.2313 10.5063 18.7563 10.2063L20.5313 9.18125L18.1875 5.4375C17.825 4.85625 17.1875 4.5 16.5 4.5C15.8125 4.5 15.175 4.85625 14.8125 5.4375L13.7188 7.1875C13.1438 8.1125 11.9313 8.40625 10.9938 7.84375C10.0375 7.26875 9.73126 6.01875 10.325 5.06875L11.4188 3.31875ZM27.3438 16.2437C28.2813 15.6812 29.4938 15.975 30.0688 16.9L31.5938 19.3438C32.1813 20.2875 32.4938 21.3688 32.5063 22.4813C32.525 25.8 29.8375 28.5063 26.5188 28.5063L20.5 28.5V30.5C20.5 31.1063 20.1375 31.6562 19.575 31.8875C19.0125 32.1188 18.3688 31.9937 17.9375 31.5625L13.9375 27.5625C13.35 26.975 13.35 26.025 13.9375 25.4438L17.9375 21.4438C18.3688 21.0125 19.0125 20.8875 19.575 21.1187C20.1375 21.35 20.5 21.9 20.5 22.5063V24.5063H26.5125C27.6125 24.5063 28.5063 23.6063 28.5 22.5063C28.5 22.1375 28.3938 21.775 28.2 21.4625L26.675 19.0187C26.0813 18.0687 26.3813 16.8188 27.3438 16.2437ZM4.55626 14.3062L2.75001 13.2625C2.22501 12.9563 1.93126 12.3688 2.01251 11.7688C2.09376 11.1687 2.52501 10.675 3.11251 10.5188L8.57501 9.05625C9.37501 8.84375 10.2 9.31875 10.4125 10.1187L11.875 15.575C12.0313 16.1625 11.8188 16.7812 11.3375 17.1562C10.8563 17.5312 10.2 17.5688 9.67501 17.2625L8.01876 16.3062L4.80001 21.4562C4.60626 21.7687 4.50001 22.1313 4.50001 22.5C4.49376 23.6 5.38751 24.5 6.48751 24.5H8.50001C9.60626 24.5 10.5 25.3937 10.5 26.5C10.5 27.6063 9.60626 28.5 8.50001 28.5H6.48751C3.16876 28.5 0.481256 25.8 0.500006 22.475C0.506256 21.3625 0.818756 20.2812 1.41251 19.3375L4.55626 14.3062Z" fill="#0B9442"/>
</svg>
